{"title":"Darkness.2002.Rated.Cut.BDRip.AC3-5.1.XviD-AXED","uid":7352059,"size":1539944288,"categoryP":"video","categoryS":"movies","magnet":"?xt=urn:btih:4065a56bd9e363b53c4b70545b98ca4bda7d7583&amp;dn=Darkness.2002.Rated.Cut.BDRip.AC3-5.1.XviD-AXED&amp;tr=udp%3A%2F%2Ftracker.openbittorrent.com%3A80&amp;tr=udp%3A%2F%2Fopen.demonii.com%3A1337&amp;tr=udp%3A%2F%2Ftracker.coppersurfer.tk%3A6969&amp;tr=udp%3A%2F%2Fexodus.desync.com%3A6969","seeders":0,"leechers":1,"uploader":"maximersk","files":4,"time":1339636666,"description":"Darkness.2002.Rated.Cut.BDRip.AC3-5.1.XviD-AXED\n\n\n\n\n\nA teenage girl moves into a remote countryside house with her family, only to discover that their gloomy new home has a horrifying past that threatens to destroy the family. \n\nGeneral\nComplete name : Darkness.2002.R.Rated.Cut.BDRiP.AC3-5.1.XviD-AXED.avi\nFormat : AVI\nFormat/Info : Audio Video Interleave\nFile size : 1.42 GiB\nDuration : 1h 42mn\nOverall bit rate : 1 977 Kbps\n\nVideo\nID : 0\nFormat : MPEG-4 Visual\nFormat profile : Advanced Simple@L5\nFormat settings, BVOP : 1\nFormat settings, QPel : No\nFormat settings, GMC : No warppoints\nFormat settings, Matrix : Default (H.263)\nCodec ID : XVID\nCodec ID/Hint : XviD\nDuration : 1h 42mn\nBit rate : 1 522 Kbps\nWidth : 720 pixels\nHeight : 304 pixels\nDisplay aspect ratio : 2.35:1\nFrame rate : 23.976 fps\nColor space : YUV\nChroma subsampling : 4:2:0\nBit depth : 8 bits\nScan type : Progressive\nCompression mode : Lossy\nBits/(Pixel*Frame) : 0.290\nStream size : 1.09 GiB (77%)\nWriting library : XviD 1.2.1 (UTC 2008-12-04)\n\nAudio\nID : 1\nFormat : AC-3\nFormat/Info : Audio Coding 3\nMode extension : CM (complete main)\nCodec ID : 2000\nDuration : 1h 42mn\nBit rate mode : Constant\nBit rate : 448 Kbps\nChannel(s) : 6 channels\nChannel positions : Front: L C R, Side: L R, LFE\nSampling rate : 48.0 KHz\nBit depth : 16 bits\nCompression mode : Lossy\nStream size : 328 MiB (23%)\nAlignment : Aligned on interleaves\nInterleave, duration : 64 ms (1.53 video frames)\nInterleave, preload duration : 12224 ms\nTitle : 00004.dga PID 1101 3_2ch 48KHz 448Kbps DELAY 12220ms","torrent":{"xt":"urn:btih:4065a56bd9e363b53c4b70545b98ca4bda7d7583","amp;dn":"Darkness.2002.Rated.Cut.BDRip.AC3-5.1.XviD-AXED","amp;tr":["udp%3A%2F%2Ftracker.openbittorrent.com%3A80","udp%3A%2F%2Fopen.demonii.com%3A1337","udp%3A%2F%2Ftracker.coppersurfer.tk%3A6969","udp%3A%2F%2Fexodus.desync.com%3A6969"],"infoHash":"4065a56bd9e363b53c4b70545b98ca4bda7d7583","infoHashBuffer":{"type":"Buffer","data":[64,101,165,107,217,227,99,181,60,75,112,84,91,152,202,75,218,125,117,131]},"announce":[],"urlList":[]}}